<svg xmlns="http://www.w3.org/2000/svg" xmlns:xlink="http://www.w3.org/1999/xlink" width="1800" zoomAndPan="magnify" viewBox="0 0 1350 1349.999938" height="1800" preserveAspectRatio="xMidYMid meet" version="1.0"><defs><g/><clipPath id="b060733bae"><path d="M 63.792969 63.792969 L 1286.292969 63.792969 L 1286.292969 1286.292969 L 63.792969 1286.292969 Z M 63.792969 63.792969 " clip-rule="nonzero"/></clipPath></defs><g clip-path="url(#b060733bae)"><path fill="#ffffff" d="M 63.792969 63.792969 L 63.792969 1286.289062 L 1286.289062 1286.289062 L 1286.289062 63.792969 Z M 1272.476562 1272.476562 L 77.605469 1272.476562 L 77.605469 77.605469 L 1272.476562 77.605469 Z M 1272.476562 1272.476562 " fill-opacity="1" fill-rule="nonzero"/></g><g fill="#ffffff" fill-opacity="1"><g transform="translate(78.316877, 965.699984)"><g><path d="M 281.515625 8.28125 C 428.894531 8.28125 518.316406 -68.722656 518.316406 -206.996094 L 518.316406 -579.585938 L 424.753906 -579.585938 L 424.753906 -203.683594 C 424.753906 -117.574219 368.453125 -69.550781 281.515625 -69.550781 C 196.230469 -69.550781 139.929688 -118.402344 139.929688 -203.683594 L 139.929688 -253.363281 L 45.539062 -253.363281 L 45.539062 -206.996094 C 45.539062 -68.722656 135.789062 8.28125 281.515625 8.28125 Z M 281.515625 8.28125 "/></g></g></g><g fill="#ffffff" fill-opacity="1"><g transform="translate(672.806875, 965.699984)"><g><path d="M 433.035156 -243.425781 L 433.035156 0 L 520.800781 0 L 520.800781 -259.988281 C 520.800781 -361 461.1875 -422.269531 346.097656 -422.269531 C 264.125 -422.269531 202.855469 -392.464844 163.941406 -356.859375 L 163.941406 -620.988281 L 75.347656 -620.988281 L 75.347656 0 L 163.941406 0 L 163.941406 -290.621094 C 190.4375 -320.429688 242.597656 -351.0625 314.632812 -351.0625 C 394.121094 -351.0625 433.035156 -317.945312 433.035156 -243.425781 Z M 433.035156 -243.425781 "/></g></g></g><g fill="#ffffff" fill-opacity="1"><g transform="translate(104.177812, 1217.789753)"><g><path d="M 43.308594 1.078125 C 68.6875 1.078125 80.242188 -7.019531 80.242188 -21.492188 C 80.242188 -33.046875 73.871094 -39.742188 58.105469 -42.445312 L 34.128906 -46.65625 C 23.761719 -48.492188 20.410156 -51.300781 20.410156 -56.699219 C 20.410156 -63.71875 28.726562 -66.636719 42.984375 -66.636719 C 54.972656 -66.636719 66.527344 -63.394531 66.527344 -56.160156 L 66.527344 -56.050781 L 77.867188 -56.050781 L 77.867188 -56.160156 C 77.867188 -70.414062 62.207031 -76.679688 42.660156 -76.679688 C 23.113281 -76.679688 8.101562 -71.605469 8.101562 -57.132812 C 8.101562 -44.386719 16.414062 -39.636719 29.375 -37.261719 L 54.214844 -32.941406 C 64.367188 -31.105469 67.933594 -27.757812 67.933594 -21.277344 C 67.933594 -13.285156 59.941406 -9.070312 43.414062 -9.070312 C 26.566406 -9.070312 17.0625 -13.609375 17.0625 -22.789062 L 17.0625 -22.894531 L 5.832031 -22.894531 L 5.832031 -22.789062 C 5.832031 -7.128906 18.898438 1.078125 43.308594 1.078125 Z M 43.308594 1.078125 "/></g></g></g><g fill="#ffffff" fill-opacity="1"><g transform="translate(190.793726, 1217.789753)"><g><path d="M 39.960938 1.078125 C 61.558594 1.078125 73.332031 -10.042969 73.332031 -27 C 73.332031 -44.0625 61.558594 -55.078125 39.960938 -55.078125 C 18.253906 -55.078125 6.589844 -44.0625 6.589844 -27 C 6.589844 -10.042969 18.253906 1.078125 39.960938 1.078125 Z M 18.035156 -27 C 18.035156 -38.664062 26.675781 -45.792969 39.960938 -45.792969 C 53.242188 -45.792969 61.777344 -38.664062 61.777344 -27 C 61.777344 -15.335938 53.242188 -8.207031 39.960938 -8.207031 C 26.675781 -8.207031 18.035156 -15.335938 18.035156 -27 Z M 18.035156 -27 "/></g></g></g><g fill="#ffffff" fill-opacity="1"><g transform="translate(270.60563, 1217.789753)"><g><path d="M 10.476562 0 L 22.03125 0 L 22.03125 -44.710938 L 40.5 -44.710938 L 40.5 -54 L 22.03125 -54 L 22.03125 -63.503906 C 22.03125 -69.011719 24.839844 -72.792969 31.210938 -72.792969 C 34.34375 -72.792969 37.476562 -72.574219 40.5 -72.144531 L 40.5 -81 C 37.042969 -81.648438 33.910156 -82.078125 29.59375 -82.078125 C 16.414062 -82.078125 10.476562 -75.167969 10.476562 -63.613281 L 10.476562 -54 L 0.648438 -54 L 0.648438 -44.710938 L 10.476562 -44.710938 Z M 10.476562 0 "/></g></g></g><g fill="#ffffff" fill-opacity="1"><g transform="translate(311.105585, 1217.789753)"><g><path d="M 33.910156 1.078125 C 36.394531 1.078125 38.554688 0.972656 40.933594 0.648438 L 40.933594 -8.207031 L 36.179688 -8.207031 C 26.785156 -8.207031 22.355469 -13.175781 22.355469 -21.167969 L 22.355469 -44.710938 L 40.933594 -44.710938 L 40.933594 -54 L 22.355469 -54 L 22.355469 -70.199219 L 10.90625 -70.199219 L 10.90625 -54 L 1.078125 -54 L 1.078125 -44.710938 L 10.90625 -44.710938 L 10.90625 -20.953125 C 10.90625 -7.128906 18.46875 1.078125 33.910156 1.078125 Z M 33.910156 1.078125 "/></g></g></g><g fill="#ffffff" fill-opacity="1"><g transform="translate(355.817534, 1217.789753)"><g><path d="M 19.65625 0 L 31.859375 0 L 45.574219 -39.851562 L 59.183594 0 L 71.28125 0 L 89.640625 -54 L 77.652344 -54 L 64.152344 -14.257812 L 50.652344 -54 L 40.5 -54 L 27 -14.148438 L 13.390625 -54 L 1.402344 -54 Z M 19.65625 0 "/></g></g></g><g fill="#ffffff" fill-opacity="1"><g transform="translate(446.861447, 1217.789753)"><g><path d="M 65.230469 1.078125 C 68.6875 1.078125 71.28125 0.648438 73.007812 0 L 73.007812 -8.855469 C 71.605469 -8.425781 70.09375 -8.207031 68.578125 -8.207031 C 65.878906 -8.207031 64.261719 -9.179688 64.261719 -12.636719 L 64.261719 -35.746094 C 64.261719 -48.492188 55.511719 -55.078125 36.503906 -55.078125 C 16.414062 -55.078125 8.746094 -47.410156 8.746094 -35.746094 L 8.746094 -35.640625 L 20.195312 -35.640625 L 20.195312 -35.746094 C 20.195312 -41.796875 24.839844 -45.792969 36.503906 -45.792969 C 46.980469 -45.792969 52.8125 -42.550781 52.8125 -35.746094 L 52.8125 -32.292969 L 31.859375 -32.292969 C 13.609375 -32.292969 6.15625 -26.027344 6.15625 -14.6875 C 6.15625 -5.832031 13.285156 1.078125 26.136719 1.078125 C 38.230469 1.078125 47.410156 -3.457031 53.027344 -8.425781 C 53.890625 -1.511719 58.535156 1.078125 65.230469 1.078125 Z M 17.710938 -15.875 C 17.710938 -21.058594 21.058594 -24.40625 29.808594 -24.40625 L 52.8125 -24.40625 L 52.8125 -16.738281 C 48.925781 -12.636719 40.933594 -8.207031 29.59375 -8.207031 C 21.816406 -8.207031 17.710938 -11.125 17.710938 -15.875 Z M 17.710938 -15.875 "/></g></g></g><g fill="#ffffff" fill-opacity="1"><g transform="translate(521.813384, 1217.789753)"><g><path d="M 9.828125 0 L 21.382812 0 L 21.382812 -28.945312 C 22.140625 -38.878906 27.539062 -45.792969 38.773438 -45.792969 C 41.902344 -45.792969 45.46875 -45.574219 48.382812 -45.144531 L 48.382812 -54 C 46.546875 -54.539062 43.523438 -55.078125 39.527344 -55.078125 C 30.996094 -55.078125 24.515625 -51.730469 20.410156 -45.898438 L 19.332031 -54 L 9.828125 -54 Z M 9.828125 0 "/></g></g></g><g fill="#ffffff" fill-opacity="1"><g transform="translate(573.653331, 1217.789753)"><g><path d="M 37.90625 1.078125 C 53.890625 1.078125 64.042969 -5.507812 67.5 -16.847656 L 55.945312 -16.847656 C 52.921875 -11.339844 46.65625 -8.207031 38.125 -8.207031 C 27 -8.207031 19.871094 -13.824219 18.359375 -23.113281 L 68.6875 -23.113281 C 69.011719 -24.839844 69.011719 -25.703125 69.011719 -27 C 69.011719 -44.171875 57.457031 -55.078125 37.476562 -55.078125 C 17.386719 -55.078125 6.589844 -44.171875 6.589844 -27 C 6.589844 -9.9375 17.605469 1.078125 37.90625 1.078125 Z M 18.359375 -30.886719 C 19.871094 -40.175781 26.890625 -45.792969 37.800781 -45.792969 C 48.707031 -45.792969 55.621094 -40.175781 57.132812 -30.886719 Z M 18.359375 -30.886719 "/></g></g></g><g fill="#ffffff" fill-opacity="1"><g transform="translate(649.14526, 1217.789753)"><g/></g></g><g fill="#ffffff" fill-opacity="1"><g transform="translate(687.809235, 1217.789753)"><g><path d="M 9.828125 0 L 81.972656 0 L 81.972656 -10.152344 L 22.140625 -10.152344 L 22.140625 -32.832031 L 67.824219 -32.832031 L 67.824219 -42.984375 L 22.140625 -42.984375 L 22.140625 -65.554688 L 81.972656 -65.554688 L 81.972656 -75.601562 L 9.828125 -75.601562 Z M 9.828125 0 "/></g></g></g><g fill="#ffffff" fill-opacity="1"><g transform="translate(774.749135, 1217.789753)"><g><path d="M 56.484375 -31.753906 L 56.484375 0 L 67.933594 0 L 67.933594 -33.910156 C 67.933594 -47.089844 60.15625 -55.078125 45.144531 -55.078125 C 34.019531 -55.078125 25.8125 -50.761719 20.734375 -45.898438 L 19.332031 -54 L 9.828125 -54 L 9.828125 0 L 21.382812 0 L 21.382812 -37.90625 C 24.839844 -41.796875 31.644531 -45.792969 41.039062 -45.792969 C 51.40625 -45.792969 56.484375 -40.609375 56.484375 -31.753906 Z M 56.484375 -31.753906 "/></g></g></g><g fill="#ffffff" fill-opacity="1"><g transform="translate(852.509012, 1217.789753)"><g><path d="M 38.878906 28.078125 C 59.183594 28.078125 69.011719 19.765625 69.011719 5.832031 L 69.011719 -54 L 59.507812 -54 L 58.105469 -46.117188 C 53.460938 -50.976562 45.683594 -55.078125 34.992188 -55.078125 C 17.171875 -55.078125 6.589844 -44.929688 6.589844 -27 C 6.589844 -9.070312 17.171875 1.078125 34.992188 1.078125 C 45.253906 1.078125 52.703125 -2.699219 57.457031 -7.234375 L 57.457031 5.832031 C 57.457031 14.148438 50.652344 18.792969 38.878906 18.792969 C 25.8125 18.792969 20.195312 14.148438 20.195312 6.910156 L 20.195312 6.804688 L 8.746094 6.804688 L 8.746094 6.910156 C 8.746094 19.765625 17.386719 28.078125 38.878906 28.078125 Z M 18.035156 -27 C 18.035156 -39.421875 25.378906 -45.792969 37.800781 -45.792969 C 47.628906 -45.792969 54.214844 -41.578125 57.457031 -37.585938 L 57.457031 -16.523438 C 54.214844 -12.421875 47.628906 -8.207031 37.800781 -8.207031 C 25.378906 -8.207031 18.035156 -14.578125 18.035156 -27 Z M 18.035156 -27 "/></g></g></g><g fill="#ffffff" fill-opacity="1"><g transform="translate(931.348873, 1217.789753)"><g><path d="M 9.828125 0 L 21.382812 0 L 21.382812 -54 L 9.828125 -54 Z M 8.855469 -69.550781 L 22.355469 -69.550781 L 22.355469 -81 L 8.855469 -81 Z M 8.855469 -69.550781 "/></g></g></g><g fill="#ffffff" fill-opacity="1"><g transform="translate(962.560864, 1217.789753)"><g><path d="M 56.484375 -31.753906 L 56.484375 0 L 67.933594 0 L 67.933594 -33.910156 C 67.933594 -47.089844 60.15625 -55.078125 45.144531 -55.078125 C 34.019531 -55.078125 25.8125 -50.761719 20.734375 -45.898438 L 19.332031 -54 L 9.828125 -54 L 9.828125 0 L 21.382812 0 L 21.382812 -37.90625 C 24.839844 -41.796875 31.644531 -45.792969 41.039062 -45.792969 C 51.40625 -45.792969 56.484375 -40.609375 56.484375 -31.753906 Z M 56.484375 -31.753906 "/></g></g></g><g fill="#ffffff" fill-opacity="1"><g transform="translate(1040.320825, 1217.789753)"><g><path d="M 37.90625 1.078125 C 53.890625 1.078125 64.042969 -5.507812 67.5 -16.847656 L 55.945312 -16.847656 C 52.921875 -11.339844 46.65625 -8.207031 38.125 -8.207031 C 27 -8.207031 19.871094 -13.824219 18.359375 -23.113281 L 68.6875 -23.113281 C 69.011719 -24.839844 69.011719 -25.703125 69.011719 -27 C 69.011719 -44.171875 57.457031 -55.078125 37.476562 -55.078125 C 17.386719 -55.078125 6.589844 -44.171875 6.589844 -27 C 6.589844 -9.9375 17.605469 1.078125 37.90625 1.078125 Z M 18.359375 -30.886719 C 19.871094 -40.175781 26.890625 -45.792969 37.800781 -45.792969 C 48.707031 -45.792969 55.621094 -40.175781 57.132812 -30.886719 Z M 18.359375 -30.886719 "/></g></g></g><g fill="#ffffff" fill-opacity="1"><g transform="translate(1115.812713, 1217.789753)"><g><path d="M 37.90625 1.078125 C 53.890625 1.078125 64.042969 -5.507812 67.5 -16.847656 L 55.945312 -16.847656 C 52.921875 -11.339844 46.65625 -8.207031 38.125 -8.207031 C 27 -8.207031 19.871094 -13.824219 18.359375 -23.113281 L 68.6875 -23.113281 C 69.011719 -24.839844 69.011719 -25.703125 69.011719 -27 C 69.011719 -44.171875 57.457031 -55.078125 37.476562 -55.078125 C 17.386719 -55.078125 6.589844 -44.171875 6.589844 -27 C 6.589844 -9.9375 17.605469 1.078125 37.90625 1.078125 Z M 18.359375 -30.886719 C 19.871094 -40.175781 26.890625 -45.792969 37.800781 -45.792969 C 48.707031 -45.792969 55.621094 -40.175781 57.132812 -30.886719 Z M 18.359375 -30.886719 "/></g></g></g><g fill="#ffffff" fill-opacity="1"><g transform="translate(1191.304601, 1217.789753)"><g><path d="M 9.828125 0 L 21.382812 0 L 21.382812 -28.945312 C 22.140625 -38.878906 27.539062 -45.792969 38.773438 -45.792969 C 41.902344 -45.792969 45.46875 -45.574219 48.382812 -45.144531 L 48.382812 -54 C 46.546875 -54.539062 43.523438 -55.078125 39.527344 -55.078125 C 30.996094 -55.078125 24.515625 -51.730469 20.410156 -45.898438 L 19.332031 -54 L 9.828125 -54 Z M 9.828125 0 "/></g></g></g></svg>